# xmcd CD database file
#
# Track frame offsets:
#	150
#	14421
#	26739
#	49186
#	66497
#	77406
#	96168
#	113244
#	123275
#	140470
#	159952
#	172709
#
# Disc length: 2560 seconds
#
# Revision: 0
# Processed by: cddbd v1.5.2PL0 Copyright (c) Steve Scherf et al.
# Submitted via: CDex 1.51
#
DISCID=9309fe0c
DTITLE=Alexander Stewart - All or nothing at all
DYEAR=2013
DGENRE=Jazz
TTITLE0=Call me
TTITLE1=No moon at all
TTITLE2=Young at heart
TTITLE3=Black and gold
TTITLE4=Too marvelous for words
TTITLE5=Fifty ways to leave your lover
TTITLE6=All or nothing at all
TTITLE7=Easy to love
TTITLE8=The hard way
TTITLE9=Please, please, please
TTITLE10=Jump for joy
TTITLE11=All the way
EXTD=YEAR: 2013
EXTT0=
EXTT1=
EXTT2=
EXTT3=
EXTT4=
EXTT5=
EXTT6=
EXTT7=
EXTT8=
EXTT9=
EXTT10=
EXTT11=
PLAYORDER=
